<?xml version="1.0" encoding="UTF-8"?>
<!--Generator: Apple Native CoreSVG 232.5-->
<!DOCTYPE svg
PUBLIC "-//W3C//DTD SVG 1.1//EN"
       "http://www.w3.org/Graphics/SVG/1.1/DTD/svg11.dtd">
<svg version="1.1" xmlns="http://www.w3.org/2000/svg" xmlns:xlink="http://www.w3.org/1999/xlink" width="21.2512" height="24.0161">
 <g>
  <rect height="24.0161" opacity="0" width="21.2512" x="0" y="0"/>
  <path d="M4.75404 9.21509L4.75404 10.9875C4.75404 14.3127 7.14174 16.4661 10.4425 16.4661C11.5179 16.4661 12.4967 16.2382 13.3252 15.8127L15.1183 17.6021C14.1092 18.2164 12.9225 18.6108 11.6193 18.7561L11.6193 20.2893L15.1349 20.2893C15.8087 20.2893 16.3849 20.8362 16.3849 21.5149C16.3849 22.179 15.8087 22.7307 15.1349 22.7307L5.75502 22.7307C5.08119 22.7307 4.50013 22.179 4.50013 21.5149C4.50013 20.8362 5.08119 20.2893 5.75502 20.2893L9.27552 20.2893L9.27552 18.7561C5.19838 18.302 2.26869 15.4163 2.26869 11.0657L2.26869 9.21509C2.26869 8.54126 2.82045 8.02368 3.50404 8.02368C4.18275 8.02368 4.75404 8.54126 4.75404 9.21509ZM9.1209 11.6171C9.27611 11.9321 9.51163 12.1755 9.81791 12.3127L12.005 14.4953C11.5323 14.6857 11.0063 14.7864 10.4425 14.7864C8.09388 14.7864 6.38978 13.0237 6.38978 10.4993L6.38978 8.89168ZM18.6261 9.21509L18.6261 11.0657C18.6261 12.3073 18.3871 13.4296 17.9438 14.4051L15.9696 12.4332C16.084 11.9841 16.1408 11.4997 16.1408 10.9875L16.1408 9.21509C16.1408 8.54126 16.7023 8.02368 17.3859 8.02368C18.0695 8.02368 18.6261 8.54126 18.6261 9.21509ZM14.5001 4.51294L14.5001 10.4993C14.5001 10.6513 14.494 10.8006 14.4812 10.9466L11.9904 8.45873L11.9904 4.42993C11.9904 3.37036 11.4191 2.56958 10.4425 2.56958C9.46595 2.56958 8.89955 3.38013 8.89955 4.42993L8.89955 5.37157L6.59849 3.07323C7.11467 1.34854 8.57479 0.230713 10.4425 0.230713C12.8009 0.230713 14.5001 1.99829 14.5001 4.51294Z" fill="#ff9f0a"/>
  <path d="M18.548 19.1809C18.8703 19.4983 19.3927 19.5032 19.7101 19.1809C20.0177 18.8586 20.0324 18.3411 19.7101 18.0188L3.22572 1.54907C2.90834 1.23169 2.37611 1.22681 2.05385 1.54907C1.74623 1.86646 1.74623 2.40356 2.05385 2.71118Z" fill="#ff9f0a"/>
 </g>
</svg>
