<?xml version="1.0" encoding="UTF-8"?>
<svg width="32px" height="32px" viewBox="0 0 32 32" version="1.1" xmlns="http://www.w3.org/2000/svg" xmlns:xlink="http://www.w3.org/1999/xlink">
    <title>Slice 1</title>
    <g id="Page-1" stroke="none" stroke-width="1" fill="none" fill-rule="evenodd">
        <g id="resize_selfview_small" fill-rule="nonzero">
            <path d="M4,0 L28,0 C30.209139,0 32,1.790861 32,4 L32,28 C32,30.209139 30.209139,32 28,32 L4,32 C1.790861,32 0,30.209139 0,28 L0,4 C0,1.790861 1.790861,0 4,0 Z" id="bg" fill="#373737"></path>
            <path d="M26.6299,16.3125 C26.6299,21.9717 21.9766,26.625 16.3125,26.625 C10.6582,26.625 6,21.9717 6,16.3125 C6,10.64844 10.65332,6 16.3076,6 C21.9717,6 26.6299,10.64844 26.6299,16.3125 Z M13.48047,12.08887 C12.63086,12.08887 12.11816,12.55273 12.11816,13.43164 L12.11816,18.1045 C12.11816,18.7832 12.50879,19.2422 13.12402,19.2422 C13.74902,19.2422 14.13477,18.793 14.13477,18.1045 L14.13477,16.7178 L13.99805,15.44824 L15.21387,16.8252 L18.4512,20.0625 C18.7148,20.3213 19.0127,20.4385 19.3496,20.4385 C19.9941,20.4385 20.5068,19.9795 20.5068,19.291 C20.5068,18.9883 20.3701,18.6709 20.1406,18.4414 L16.8691,15.1748 L15.47754,13.9541 L16.6885,14.11035 L18.168,14.11035 C18.8613,14.11035 19.3057,13.72461 19.3057,13.10449 C19.3057,12.47949 18.8564,12.08887 18.1631,12.08887 L13.48047,12.08887 Z" id="Shape" fill="#66D4CF"></path>
        </g>
    </g>
</svg>