<?xml version="1.0" encoding="UTF-8"?>
<!--Generator: Apple Native CoreSVG 232.5-->
<!DOCTYPE svg
PUBLIC "-//W3C//DTD SVG 1.1//EN"
       "http://www.w3.org/Graphics/SVG/1.1/DTD/svg11.dtd">
<svg version="1.1" xmlns="http://www.w3.org/2000/svg" xmlns:xlink="http://www.w3.org/1999/xlink" width="26.1084" height="20.3613">
 <g>
  <rect height="20.3613" opacity="0" width="26.1084" x="0" y="0"/>
  <path d="M7.66602 9.26758C10.2344 9.26758 12.2998 7.16309 12.2998 4.63867C12.2998 2.08496 10.1807 0.0195312 7.66602 0.0195312C7.2168 0.0195312 6.81152 0.0585938 6.44531 0.170898L6.44531 2.78809C6.81152 2.5293 7.22656 2.38281 7.66602 2.38281C8.8623 2.38281 9.89258 3.41309 9.89258 4.63867C9.89258 5.84473 8.8916 6.84082 7.66602 6.84082C6.4209 6.84082 5.44434 5.87891 5.44434 4.63867L5.44434 0.561523C3.97461 1.39648 3.03711 2.91504 3.03711 4.63867C3.03711 7.2168 5.09766 9.26758 7.66602 9.26758ZM7.66602 5.86426C8.32031 5.86426 8.88184 5.28809 8.88184 4.63867C8.88184 4.01367 8.30566 3.42773 7.66602 3.42773C7.03125 3.42773 6.45508 3.99414 6.45508 4.63867C6.45508 5.30273 7.00684 5.86426 7.66602 5.86426ZM5.84473 8.30566L5.84473 10.4541C5.84473 11.1914 6.35742 11.626 7.10938 11.626L8.22266 11.626C8.99902 11.626 9.49219 11.1914 9.49219 10.4541L9.49219 8.30566ZM6.74805 20.3613L8.58887 20.3613L8.58887 10.4883L6.74805 10.4883ZM18.0762 9.26758C20.6445 9.26758 22.71 7.16309 22.71 4.63867C22.71 2.08496 20.5908 0.0195312 18.0762 0.0195312C17.627 0.0195312 17.2217 0.0585938 16.8555 0.170898L16.8555 2.78809C17.2217 2.5293 17.6367 2.38281 18.0762 2.38281C19.2725 2.38281 20.3027 3.41309 20.3027 4.63867C20.3027 5.84473 19.3018 6.84082 18.0762 6.84082C16.8311 6.84082 15.8545 5.87891 15.8545 4.63867L15.8545 0.561523C14.3848 1.39648 13.4473 2.91504 13.4473 4.63867C13.4473 7.2168 15.5127 9.26758 18.0762 9.26758ZM18.0762 5.86426C18.7305 5.86426 19.292 5.28809 19.292 4.63867C19.292 4.01367 18.7158 3.42773 18.0762 3.42773C17.4414 3.42773 16.8652 3.99414 16.8652 4.63867C16.8652 5.30273 17.417 5.86426 18.0762 5.86426ZM19.9023 8.30566L16.2549 8.30566L16.2549 10.4541C16.2549 11.1914 16.748 11.626 17.5195 11.626L18.6377 11.626C19.3896 11.626 19.9023 11.1914 19.9023 10.4541ZM18.999 20.3613L18.999 10.4883L17.1582 10.4883L17.1582 20.3613Z" fill="#66d4cf"/>
  <path d="M2.06055 4.64844C2.06055 2.8418 2.91504 1.24512 4.2334 0.219727C1.84082 0.361328 0 2.25586 0 4.65332C0 7.04102 1.83105 8.9502 4.25293 9.08203C2.91992 8.06152 2.06055 6.45508 2.06055 4.64844ZM23.6865 4.64844C23.6865 6.45508 22.8271 8.06152 21.499 9.08203C23.8965 8.9502 25.7471 7.05078 25.7471 4.65332C25.7471 2.26562 23.9209 0.361328 21.5137 0.219727C22.832 1.24512 23.6865 2.8418 23.6865 4.64844Z" fill="#66d4cf" fill-opacity="0.5"/>
 </g>
</svg>
