<?xml version="1.0" encoding="UTF-8"?>
<!--Generator: Apple Native CoreSVG 232.5-->
<!DOCTYPE svg
PUBLIC "-//W3C//DTD SVG 1.1//EN"
       "http://www.w3.org/Graphics/SVG/1.1/DTD/svg11.dtd">
<svg version="1.1" xmlns="http://www.w3.org/2000/svg" xmlns:xlink="http://www.w3.org/1999/xlink" width="16.7773" height="21.2793">
 <g>
  <rect height="21.2793" opacity="0" width="16.7773" x="0" y="0"/>
  <path d="M0 3.29102L0 17.9883C0 20.1123 1.16211 21.2793 3.27637 21.2793L13.1494 21.2793C15.2637 21.2793 16.416 20.1123 16.416 17.9883L16.416 3.29102C16.416 1.16699 15.2637 0 13.1494 0L3.27637 0C1.16211 0 0 1.16699 0 3.29102ZM2.51953 3.56445C2.51953 2.87109 2.84668 2.51953 3.56934 2.51953L12.8516 2.51953C13.5742 2.51953 13.8965 2.87109 13.8965 3.56445L13.8965 17.7148C13.8965 18.4033 13.5693 18.7598 12.8516 18.7598L3.56934 18.7598C2.84668 18.7598 2.51953 18.4033 2.51953 17.7148ZM8.21289 17.4414C10.3564 17.4414 12.085 15.7227 12.085 13.5742C12.085 11.4111 10.3564 9.70703 8.21289 9.70215C6.06934 9.6875 4.34082 11.4111 4.34082 13.5742C4.34082 15.7227 6.06934 17.4414 8.21289 17.4414ZM8.21289 14.9463C7.45605 14.9463 6.83105 14.3311 6.83105 13.5742C6.83105 12.7783 7.43652 12.1826 8.21289 12.1826C8.97949 12.1826 9.58984 12.7783 9.58984 13.5742C9.58984 14.3311 8.97949 14.9463 8.21289 14.9463ZM8.20801 8.44238C9.49707 8.44238 10.5518 7.41211 10.5322 6.11816C10.5225 4.82422 9.49707 3.80859 8.20801 3.79395C6.91406 3.78906 5.88867 4.81934 5.88867 6.11816C5.88867 7.41211 6.91406 8.44238 8.20801 8.44238ZM8.21289 7.00684C7.71484 7.00684 7.32422 6.60156 7.32422 6.11816C7.32422 5.60059 7.71484 5.22461 8.21289 5.22461C8.69141 5.22461 9.10156 5.62012 9.10156 6.11816C9.10156 6.60156 8.70117 7.00684 8.21289 7.00684Z" fill="#66d4cf"/>
 </g>
</svg>
