<?xml version="1.0" encoding="UTF-8"?>
<!--Generator: Apple Native CoreSVG 232.5-->
<!DOCTYPE svg
PUBLIC "-//W3C//DTD SVG 1.1//EN"
       "http://www.w3.org/Graphics/SVG/1.1/DTD/svg11.dtd">
<svg version="1.1" xmlns="http://www.w3.org/2000/svg" xmlns:xlink="http://www.w3.org/1999/xlink" width="21.1523" height="21.4258">
 <g>
  <rect height="21.4258" opacity="0" width="21.1523" x="0" y="0"/>
  <path d="M0 11.0889C0 14.0918 0.874023 17.417 2.33887 19.9902C2.69043 20.5957 3.38867 20.7812 4.01855 20.4346C4.62891 20.1025 4.80469 19.3994 4.44824 18.75C3.16895 16.416 2.45605 13.6621 2.45605 11.0889C2.45605 5.9082 5.62988 2.45605 10.3955 2.45605C15.1611 2.45605 18.335 5.9082 18.335 11.0889C18.335 13.6621 17.6172 16.416 16.3379 18.75C15.9814 19.3994 16.1572 20.1025 16.7676 20.4346C17.3975 20.7812 18.1006 20.5957 18.4473 19.9902C19.9121 17.417 20.791 14.0918 20.791 11.0889C20.791 4.42871 16.6406 0 10.3955 0C4.14551 0 0 4.42871 0 11.0889ZM3.70605 19.7021C4.10156 20.9277 5.19043 21.4697 6.43066 21.0791C7.66113 20.6738 8.21289 19.5801 7.80762 18.3496L6.3916 13.9404C5.99609 12.7197 4.91211 12.168 3.67188 12.5586C2.44141 12.9639 1.88965 14.0576 2.29492 15.2979ZM17.0801 19.7021L18.4912 15.2979C18.8965 14.0527 18.3496 12.9639 17.1143 12.5586C15.874 12.168 14.7949 12.7197 14.3945 13.9404L12.9785 18.3496C12.5732 19.585 13.125 20.6738 14.3555 21.0791C15.6006 21.4697 16.6846 20.9277 17.0801 19.7021Z" fill="#66d4cf"/>
 </g>
</svg>
