<?xml version="1.0" encoding="UTF-8"?>
<!--Generator: Apple Native CoreSVG 232.5-->
<!DOCTYPE svg
PUBLIC "-//W3C//DTD SVG 1.1//EN"
       "http://www.w3.org/Graphics/SVG/1.1/DTD/svg11.dtd">
<svg version="1.1" xmlns="http://www.w3.org/2000/svg" xmlns:xlink="http://www.w3.org/1999/xlink" width="25.6934" height="16.7871">
 <g>
  <rect height="16.7871" opacity="0" width="25.6934" x="0" y="0"/>
  <path d="M4.89258 16.7773L14.9707 16.7773C17.6611 16.7773 19.165 15.293 19.165 12.7051L19.165 4.0625C19.165 1.48438 17.6611 0 14.9707 0L4.89258 0C2.25586 0 0.698242 1.48438 0.698242 4.07227L0.698242 12.8711C0.698242 15.4492 2.19727 16.7773 4.89258 16.7773ZM5.29297 14.5605C3.87207 14.5605 3.06641 13.7695 3.06641 12.3486L3.06641 4.42871C3.06641 2.94434 3.87207 2.20703 5.29297 2.20703L14.5703 2.20703C15.9814 2.20703 16.792 2.99805 16.792 4.42871L16.792 12.3486C16.792 13.7695 15.957 14.5605 14.5557 14.5605ZM18.667 5.52246L18.667 7.9834L23.1348 4.37988C23.208 4.32129 23.2617 4.28223 23.3398 4.28223C23.4326 4.28223 23.4863 4.35547 23.4863 4.47266L23.4863 12.4316C23.4863 12.5439 23.4326 12.6172 23.3398 12.6172C23.2617 12.6172 23.208 12.5732 23.1348 12.5195L18.667 8.9209L18.667 11.3721L22.3975 14.5508C22.9639 15.0293 23.501 15.3516 24.0625 15.3516C25.0195 15.3516 25.6934 14.6777 25.6934 13.6328L25.6934 3.27148C25.6934 2.22168 25.0195 1.54785 24.0625 1.54785C23.4961 1.54785 22.9639 1.87012 22.3975 2.34863Z" fill="#66d4cf"/>
 </g>
</svg>
