<?xml version="1.0" encoding="UTF-8"?>
<!--Generator: Apple Native CoreSVG 232.5-->
<!DOCTYPE svg
PUBLIC "-//W3C//DTD SVG 1.1//EN"
       "http://www.w3.org/Graphics/SVG/1.1/DTD/svg11.dtd">
<svg version="1.1" xmlns="http://www.w3.org/2000/svg" xmlns:xlink="http://www.w3.org/1999/xlink" width="20.9912" height="21.875">
 <g>
  <rect height="21.875" opacity="0" width="20.9912" x="0" y="0"/>
  <path d="M10.3125 21.25C15.9766 21.25 20.6299 16.5967 20.6299 10.9375C20.6299 8.05664 19.4092 5.49316 17.6611 3.76465C16.3965 2.46094 14.4824 4.05762 15.8057 5.49316C17.1973 6.87988 18.0518 8.80371 18.0615 10.9375C18.0664 15.2295 14.6045 18.6816 10.3125 18.6816C6.02051 18.6816 2.57324 15.2295 2.57324 10.9375C2.57812 8.78906 3.4375 6.875 4.82422 5.48828C6.15234 4.04785 4.2334 2.45605 2.96387 3.75977C1.21094 5.48828 0 8.05664 0 10.9375C0 16.5967 4.6582 21.25 10.3125 21.25ZM10.3125 11.1816C11.1377 11.1816 11.6846 10.6006 11.6846 9.73145L11.6846 1.44531C11.6846 0.576172 11.1377 0 10.3125 0C9.49219 0 8.9502 0.576172 8.9502 1.44531L8.9502 9.73145C8.9502 10.6006 9.49219 11.1816 10.3125 11.1816Z" fill="#66d4cf"/>
 </g>
</svg>
