<?xml version="1.0" encoding="UTF-8"?>
<!--Generator: Apple Native CoreSVG 232.5-->
<!DOCTYPE svg
PUBLIC "-//W3C//DTD SVG 1.1//EN"
       "http://www.w3.org/Graphics/SVG/1.1/DTD/svg11.dtd">
<svg version="1.1" xmlns="http://www.w3.org/2000/svg" xmlns:xlink="http://www.w3.org/1999/xlink" width="16.7236" height="23.5547">
 <g>
  <rect height="23.5547" opacity="0" width="16.7236" x="0" y="0"/>
  <path d="M0 10.835C0 15.1855 2.93945 18.0713 7.01172 18.5254L7.01172 20.0586L3.49121 20.0586C2.81738 20.0586 2.23633 20.6055 2.23633 21.2842C2.23633 21.9482 2.81738 22.5 3.49121 22.5L12.8662 22.5C13.5449 22.5 14.126 21.9482 14.126 21.2842C14.126 20.6055 13.5449 20.0586 12.8662 20.0586L9.35059 20.0586L9.35059 18.5254C13.4277 18.0713 16.3623 15.1855 16.3623 10.835L16.3623 8.98438C16.3623 8.31055 15.8057 7.79297 15.1221 7.79297C14.4434 7.79297 13.8721 8.31055 13.8721 8.98438L13.8721 10.7568C13.8721 14.082 11.4893 16.2354 8.18359 16.2354C4.87305 16.2354 2.49023 14.082 2.49023 10.7568L2.49023 8.98438C2.49023 8.31055 1.92383 7.79297 1.23535 7.79297C0.551758 7.79297 0 8.31055 0 8.98438ZM4.12598 10.2686C4.12598 12.793 5.8252 14.5557 8.18359 14.5557C10.5322 14.5557 12.2363 12.793 12.2363 10.2686L12.2363 4.28223C12.2363 1.76758 10.5322 0 8.18359 0C5.8252 0 4.12598 1.76758 4.12598 4.28223ZM6.63574 10.3564L6.63574 4.19922C6.63574 3.14941 7.20703 2.33887 8.18359 2.33887C9.16016 2.33887 9.72168 3.13965 9.72168 4.19922L9.72168 10.3564C9.72168 11.4111 9.16016 12.2119 8.18359 12.2119C7.20703 12.2119 6.63574 11.4111 6.63574 10.3564Z" fill="#66d4cf"/>
 </g>
</svg>
