<?xml version="1.0" encoding="UTF-8"?>
<!--Generator: Apple Native CoreSVG 232.5-->
<!DOCTYPE svg
PUBLIC "-//W3C//DTD SVG 1.1//EN"
       "http://www.w3.org/Graphics/SVG/1.1/DTD/svg11.dtd">
<svg version="1.1" xmlns="http://www.w3.org/2000/svg" xmlns:xlink="http://www.w3.org/1999/xlink" width="24.4824" height="26.582">
 <g>
  <rect height="26.582" opacity="0" width="24.4824" x="0" y="0"/>
  <path d="M20.3223 9.56543C20.3223 11.5662 19.7271 12.9152 18.9047 14.0235C18.5091 13.6596 17.9764 13.4375 17.3877 13.4375C17.1073 13.4375 16.8397 13.489 16.5936 13.5837C17.5126 12.5438 18.1885 11.4067 18.1885 9.56543C18.1885 6.0791 15.9082 3.74512 12.4854 3.74512C9.00391 3.74512 6.67969 6.10352 6.67969 9.64844L6.67969 18.2812C6.67969 19.9951 7.71484 21.0303 9.44336 21.0303C9.74775 21.0303 10.0287 20.9976 10.2876 20.9314C10.3147 21.7368 10.7555 22.437 11.4053 22.8246C10.789 23.0656 10.1021 23.1885 9.3457 23.1885C6.37207 23.1885 4.5459 21.3867 4.5459 18.335L4.5459 9.64844C4.5459 4.8291 7.73438 1.61133 12.4854 1.61133C17.1826 1.61133 20.3223 4.7998 20.3223 9.56543ZM8.81836 14.5361C8.31543 14.5361 7.94922 14.1602 7.94922 13.6572L7.94922 9.60938C7.94922 6.9043 9.77051 5.09277 12.4805 5.09277C15.1953 5.09277 17.002 6.88965 17.002 9.56543C17.002 10.0488 16.6064 10.4395 16.1328 10.4395C15.6494 10.4395 15.2588 10.0488 15.2588 9.56543C15.2588 7.91504 14.1602 6.82617 12.4805 6.82617C10.7959 6.82617 9.69238 7.93457 9.69238 9.60938L9.69238 10.1563L11.5039 10.1562C13.1543 10.1562 14.2578 11.1768 14.2578 12.6807C14.2578 13.3057 13.9893 14.0771 13.5596 14.6143L12.4609 16.0059C12.2803 16.2354 12.0361 16.3721 11.7627 16.3721C11.2744 16.3721 10.8887 15.9961 10.8887 15.5322C10.8887 15.3271 10.9717 15.1074 11.1279 14.9121L12.1289 13.6523C12.3486 13.3838 12.4854 13.0518 12.4854 12.749C12.4854 12.2314 12.1143 11.8799 11.5283 11.8799L9.69238 11.8799L9.69238 13.6572C9.69238 14.1602 9.31641 14.5361 8.81836 14.5361Z" fill="#66d4cf"/>
  <path d="M22.1729 21.9678C22.5195 21.9678 22.7832 21.6992 22.7832 21.3477L22.7832 18.667C22.7832 18.3154 22.5146 18.0469 22.1729 18.0469C21.8164 18.0469 21.5479 18.3301 21.5479 18.667L21.5479 21.3477C21.5479 21.6992 21.8164 21.9678 22.1729 21.9678Z" fill="#66d4cf"/>
  <path d="M19.7705 23.5303C20.127 23.5303 20.3955 23.252 20.3955 22.9102L20.3955 17.1045C20.3955 16.7578 20.1221 16.4893 19.7705 16.4893C19.4336 16.4893 19.1602 16.7627 19.1602 17.1045L19.1602 22.9102C19.1602 23.252 19.4336 23.5303 19.7705 23.5303Z" fill="#66d4cf"/>
  <path d="M17.3828 24.8926C17.7246 24.8926 18.0029 24.6143 18.0029 24.2725L18.0029 15.7568C18.0029 15.4004 17.7246 15.1318 17.3828 15.1318C17.0361 15.1318 16.7627 15.4102 16.7627 15.7568L16.7627 24.2725C16.7627 24.6191 17.0312 24.8926 17.3828 24.8926Z" fill="#66d4cf"/>
  <path d="M14.9805 23.3691C15.3369 23.3691 15.6104 23.0957 15.6104 22.749L15.6104 17.2656C15.6104 16.9238 15.3369 16.6504 14.9805 16.6504C14.6387 16.6504 14.3701 16.9238 14.3701 17.2656L14.3701 22.749C14.3701 23.1006 14.6436 23.3691 14.9805 23.3691Z" fill="#66d4cf"/>
  <path d="M12.583 21.4648C12.9346 21.4648 13.2129 21.1865 13.2129 20.8447L13.2129 19.1748C13.2129 18.833 12.9346 18.5547 12.583 18.5547C12.2461 18.5547 11.9727 18.833 11.9727 19.1748L11.9727 20.8447C11.9727 21.1865 12.2461 21.4648 12.583 21.4648Z" fill="#66d4cf"/>
 </g>
</svg>
