<?xml version="1.0" encoding="UTF-8"?>
<!--Generator: Apple Native CoreSVG 232.5-->
<!DOCTYPE svg
PUBLIC "-//W3C//DTD SVG 1.1//EN"
       "http://www.w3.org/Graphics/SVG/1.1/DTD/svg11.dtd">
<svg version="1.1" xmlns="http://www.w3.org/2000/svg" xmlns:xlink="http://www.w3.org/1999/xlink" width="22.852" height="23.1055">
 <g>
  <rect height="23.1055" opacity="0" width="22.852" x="0" y="0"/>
  <path d="M4.31664 21.2646C4.87328 21.6943 5.56664 21.5625 6.3186 21.0107L11.2454 17.3877L16.1672 21.0107C16.9289 21.5625 17.6125 21.6943 18.1741 21.2646C18.7258 20.8447 18.8381 20.1562 18.5403 19.2871L16.592 13.5059L21.5579 9.94141C22.3147 9.4043 22.6418 8.78418 22.4172 8.12012C22.1975 7.46094 21.5725 7.14355 20.6497 7.1582L14.5608 7.20215L12.7102 1.38184C12.4221 0.488281 11.9387 0 11.2454 0C10.552 0 10.0686 0.488281 9.78051 1.38184L7.92992 7.20215L1.83617 7.1582C0.918205 7.14355 0.293205 7.46094 0.0734782 8.11523C-0.160897 8.78418 0.176017 9.4043 0.932853 9.94141L5.89867 13.5059L3.95043 19.2871C3.65258 20.1562 3.76977 20.8447 4.31664 21.2646ZM6.57738 18.1592C6.56274 18.1445 6.56274 18.1348 6.5725 18.0859L8.27172 13.4473C8.50121 12.8076 8.47192 12.5146 7.85668 12.1143L3.75512 9.35547C3.71606 9.33594 3.70629 9.31641 3.71117 9.29199C3.71606 9.27246 3.74047 9.26758 3.7893 9.26758L8.72094 9.43848C9.39965 9.45312 9.67309 9.29688 9.85375 8.63281L11.2014 3.88672C11.2112 3.83789 11.2258 3.82324 11.2454 3.82324C11.2649 3.82324 11.2795 3.83789 11.2893 3.88672L12.637 8.63281C12.8176 9.29688 13.0911 9.45312 13.7747 9.43848L18.7112 9.26758C18.76 9.26758 18.7795 9.27246 18.7844 9.29199C18.7893 9.31641 18.7747 9.33105 18.7405 9.35547L14.634 12.1191C14.0237 12.5195 13.9895 12.8076 14.219 13.4473L15.9182 18.0859C15.9329 18.1348 15.928 18.1445 15.9133 18.1592C15.8987 18.1836 15.8743 18.1689 15.845 18.1445L11.9582 15.0879C11.4114 14.6631 11.0793 14.6631 10.5325 15.0879L6.64574 18.1445C6.61645 18.1689 6.59203 18.1836 6.57738 18.1592Z" fill="#66d4cf"/>
 </g>
</svg>
