<?xml version="1.0" encoding="UTF-8"?>
<!--Generator: Apple Native CoreSVG 232.5-->
<!DOCTYPE svg
PUBLIC "-//W3C//DTD SVG 1.1//EN"
       "http://www.w3.org/Graphics/SVG/1.1/DTD/svg11.dtd">
<svg version="1.1" xmlns="http://www.w3.org/2000/svg" xmlns:xlink="http://www.w3.org/1999/xlink" width="15.1562" height="17.9102">
 <g>
  <rect height="17.9102" opacity="0" width="15.1562" x="0" y="0"/>
  <path d="M2.4707 13.4326L5.19531 13.4326C5.25879 13.4326 5.31738 13.4473 5.37598 13.5059L9.45801 17.1582C10.0391 17.6709 10.4785 17.9102 11.0742 17.9102C11.9434 17.9102 12.6074 17.2559 12.6074 16.3818L12.6074 1.57227C12.6074 0.698242 11.9434 0.00976562 11.0645 0.00976562C10.4932 0.00976562 10.0732 0.249023 9.45801 0.795898L5.37598 4.42383C5.3125 4.47754 5.25879 4.49707 5.19531 4.49707L2.4707 4.49707C0.854492 4.49707 0 5.38574 0 7.08008L0 10.8594C0 12.5488 0.854492 13.4326 2.4707 13.4326ZM2.80762 11.1914C2.54395 11.1914 2.40723 11.0498 2.40723 10.7959L2.40723 7.13867C2.40723 6.88477 2.54395 6.74316 2.80762 6.74316L5.73242 6.74316C6.02051 6.74316 6.22559 6.67969 6.4502 6.47461L9.91211 3.30566C9.95605 3.26172 10.0098 3.24219 10.0635 3.24219C10.1416 3.24219 10.2002 3.2959 10.2002 3.38867L10.2002 14.5312C10.2002 14.624 10.1416 14.6924 10.0635 14.6924C10.0146 14.6924 9.96094 14.6631 9.91699 14.6191L6.4502 11.46C6.22559 11.2549 6.02051 11.1914 5.73242 11.1914Z" fill="#66d4cf"/>
 </g>
</svg>
