<?xml version="1.0" encoding="UTF-8"?>
<svg width="32px" height="32px" viewBox="0 0 32 32" version="1.1" xmlns="http://www.w3.org/2000/svg" xmlns:xlink="http://www.w3.org/1999/xlink">
    <title>Slice 1</title>
    <g id="Page-1" stroke="none" stroke-width="1" fill="none" fill-rule="evenodd">
        <g id="resize_selfview_small" fill-rule="nonzero">
            <path d="M4,0 L28,0 C30.209139,0 32,1.790861 32,4 L32,28 C32,30.209139 30.209139,32 28,32 L4,32 C1.790861,32 0,30.209139 0,28 L0,4 C0,1.790861 1.790861,0 4,0 Z" id="bg" fill="#373737"></path>
            <path d="M26.6299,16.3125 C26.6299,21.9717 21.9766,26.625 16.3125,26.625 C10.6582,26.625 6,21.9717 6,16.3125 C6,10.64844 10.65332,6 16.3076,6 C21.9717,6 26.6299,10.64844 26.6299,16.3125 Z M19.5498,16.3027 C19.5498,17.2109 20.2871,17.9482 21.2002,17.9482 C22.0986,17.9482 22.8408,17.2109 22.8408,16.3027 C22.8408,15.39453 22.0986,14.65234 21.2002,14.65234 C20.2871,14.65234 19.5498,15.39453 19.5498,16.3027 Z M14.66699,16.3027 C14.66699,17.2109 15.4043,17.9482 16.3125,17.9482 C17.2256,17.9482 17.9629,17.2109 17.9629,16.3027 C17.9629,15.39453 17.2256,14.65234 16.3125,14.65234 C15.4043,14.65234 14.66699,15.39453 14.66699,16.3027 Z M9.78906,16.3027 C9.78906,17.2109 10.53125,17.9482 11.43457,17.9482 C12.33789,17.9482 13.08008,17.2109 13.08008,16.3027 C13.08008,15.39453 12.33301,14.65234 11.43457,14.65234 C10.53125,14.65234 9.78906,15.39453 9.78906,16.3027 Z" id="Shape" fill="#66D4CF"></path>
        </g>
    </g>
</svg>