<?xml version="1.0" encoding="UTF-8"?>
<svg width="32px" height="32px" viewBox="0 0 32 32" version="1.1" xmlns="http://www.w3.org/2000/svg" xmlns:xlink="http://www.w3.org/1999/xlink">
    <title>Slice 1</title>
    <g id="Page-1" stroke="none" stroke-width="1" fill="none" fill-rule="evenodd">
        <g id="resize_selfview_small" fill-rule="nonzero">
            <path d="M4,0 L28,0 C30.209139,0 32,1.790861 32,4 L32,28 C32,30.209139 30.209139,32 28,32 L4,32 C1.790861,32 0,30.209139 0,28 L0,4 C0,1.790861 1.790861,0 4,0 Z" id="bg" fill="#373737"></path>
            <path d="M26.6299,16.3125 C26.6299,21.9717 21.9766,26.625 16.3125,26.625 C10.6582,26.625 6,21.9717 6,16.3125 C6,10.64844 10.65332,6 16.3076,6 C21.9717,6 26.6299,10.64844 26.6299,16.3125 Z M12.12305,13.23633 C12.12305,13.54395 12.25977,13.86133 12.48926,14.09082 L15.76074,17.3477 L17.1523,18.5781 L15.94141,18.417 L14.46191,18.417 C13.76855,18.417 13.32422,18.8076 13.32422,19.4229 C13.32422,20.0479 13.76855,20.4385 14.4668,20.4385 L19.1494,20.4385 C19.999,20.4385 20.5117,19.9795 20.5117,19.0957 L20.5117,14.42285 C20.5117,13.73926 20.1162,13.29004 19.5059,13.29004 C18.8809,13.29004 18.4902,13.72949 18.4902,14.42773 L18.4902,15.80957 L18.6318,17.084 L17.4111,15.70215 L14.17383,12.46484 C13.90527,12.20605 13.61719,12.08887 13.27539,12.08887 C12.63574,12.08887 12.12305,12.54785 12.12305,13.23633 Z" id="Shape" fill="#66D4CF"></path>
        </g>
    </g>
</svg>