<?xml version="1.0" encoding="UTF-8"?>
<!--Generator: Apple Native CoreSVG 232.5-->
<!DOCTYPE svg
PUBLIC "-//W3C//DTD SVG 1.1//EN"
       "http://www.w3.org/Graphics/SVG/1.1/DTD/svg11.dtd">
<svg version="1.1" xmlns="http://www.w3.org/2000/svg" xmlns:xlink="http://www.w3.org/1999/xlink" width="34.6924" height="15.7227">
 <g>
  <rect height="15.7227" opacity="0" width="34.6924" x="0" y="0"/>
  <path d="M7.0459 9.91699C8.39844 10.4883 9.97559 9.83887 10.5664 8.49121L12.4902 4.11621C13.0811 2.77344 12.4316 1.17188 11.0693 0.585938C9.70703 0.00976562 8.14453 0.649414 7.53906 2.0166L5.62012 6.3916C5.02441 7.75391 5.67383 9.32129 7.0459 9.91699ZM8.06152 9.13086C7.12891 9.13086 6.38184 8.37891 6.38184 7.44629C6.38184 6.51367 7.13867 5.7666 8.06152 5.7666C8.99902 5.7666 9.74121 6.51367 9.74121 7.44629C9.74121 8.37891 8.99902 9.13086 8.06152 9.13086ZM8.06152 8.33496C8.56934 8.33496 8.94531 7.93945 8.94531 7.44629C8.94531 6.96289 8.56934 6.5625 8.06152 6.5625C7.56836 6.5625 7.17773 6.96289 7.17773 7.44629C7.17773 7.93945 7.56836 8.33496 8.06152 8.33496ZM16.2793 7.05566C15.8105 5.50293 14.6875 4.7168 13.7012 3.90137C13.6523 4.12598 13.584 4.33594 13.4863 4.55078L11.5625 8.93066C10.7227 10.8301 8.51074 11.7139 6.61621 10.9131C4.91699 10.1709 4.02832 8.35449 4.44336 6.64551C3.76465 7.68066 3.68164 9.05273 4.27734 10.6836C5.42969 13.9062 8.37891 14.7412 11.5625 13.501L13.3594 12.8027C15.8252 11.8311 17.002 9.52637 16.2793 7.05566ZM27.2852 9.91699C28.6523 9.32129 29.3066 7.75391 28.7109 6.3916L26.792 2.0166C26.1865 0.649414 24.624 0.00976562 23.2617 0.585938C21.8994 1.17188 21.25 2.77344 21.8408 4.11621L23.7646 8.49121C24.3555 9.83887 25.9326 10.4883 27.2852 9.91699ZM26.2695 9.13086C25.332 9.13086 24.5898 8.37891 24.5898 7.44629C24.5898 6.51367 25.332 5.7666 26.2695 5.7666C27.1924 5.7666 27.9492 6.51367 27.9492 7.44629C27.9492 8.37891 27.2021 9.13086 26.2695 9.13086ZM26.2695 8.33496C26.7627 8.33496 27.1533 7.93945 27.1533 7.44629C27.1533 6.96289 26.7627 6.5625 26.2695 6.5625C25.7666 6.5625 25.3809 6.96289 25.3809 7.44629C25.3809 7.93945 25.7666 8.33496 26.2695 8.33496ZM18.0469 7.05566C17.3291 9.52637 18.501 11.8311 20.9717 12.8027L22.7686 13.501C25.9521 14.7412 28.9014 13.9062 30.0488 10.6836C30.6494 9.05273 30.5664 7.68066 29.8877 6.64551C30.3027 8.35449 29.4141 10.1709 27.71 10.9131C25.8203 11.7139 23.6084 10.8301 22.7686 8.93066L20.8447 4.55078C20.7471 4.33594 20.6787 4.12598 20.6299 3.90137C19.6387 4.7168 18.5205 5.50293 18.0469 7.05566Z" fill="#66d4cf"/>
  <path d="M3.25684 11.0547C2.80762 9.84375 2.68555 8.70605 2.9248 7.46094C1.18164 7.98828 0 9.55566 0 11.4502C0 13.8135 1.9043 15.7227 4.24805 15.7227C5.3125 15.7227 6.14258 15.4004 6.81641 14.7998C5.2002 14.2285 3.93555 12.9541 3.25684 11.0547ZM31.0742 11.0547C30.3906 12.9541 29.1309 14.2285 27.5146 14.7998C28.1885 15.4004 29.0186 15.7227 30.083 15.7227C32.4268 15.7227 34.3311 13.8135 34.3311 11.4502C34.3311 9.55566 33.1494 7.98828 31.4062 7.46094C31.6455 8.70605 31.5186 9.84375 31.0742 11.0547Z" fill="#66d4cf" fill-opacity="0.5"/>
  <path d="M8.06152 9.13086C7.12891 9.13086 6.38184 8.37891 6.38184 7.44629C6.38184 6.51367 7.13867 5.7666 8.06152 5.7666C8.99902 5.7666 9.74121 6.51367 9.74121 7.44629C9.74121 8.37891 8.99902 9.13086 8.06152 9.13086ZM8.06152 8.33496C8.56934 8.33496 8.94531 7.93945 8.94531 7.44629C8.94531 6.96289 8.56934 6.5625 8.06152 6.5625C7.56836 6.5625 7.17773 6.96289 7.17773 7.44629C7.17773 7.93945 7.56836 8.33496 8.06152 8.33496ZM26.2695 9.13086C25.332 9.13086 24.5898 8.37891 24.5898 7.44629C24.5898 6.51367 25.332 5.7666 26.2695 5.7666C27.1924 5.7666 27.9492 6.51367 27.9492 7.44629C27.9492 8.37891 27.2021 9.13086 26.2695 9.13086ZM26.2695 8.33496C26.7627 8.33496 27.1533 7.93945 27.1533 7.44629C27.1533 6.96289 26.7627 6.5625 26.2695 6.5625C25.7666 6.5625 25.3809 6.96289 25.3809 7.44629C25.3809 7.93945 25.7666 8.33496 26.2695 8.33496Z" fill="#66d4cf" fill-opacity="0.25"/>
 </g>
</svg>
