<?xml version="1.0" encoding="UTF-8"?>
<svg width="32px" height="32px" viewBox="0 0 32 32" version="1.1" xmlns="http://www.w3.org/2000/svg" xmlns:xlink="http://www.w3.org/1999/xlink">
    <title>Slice 1</title>
    <g id="Page-1" stroke="none" stroke-width="1" fill="none" fill-rule="evenodd">
        <g id="resize_selfview_small" fill-rule="nonzero">
            <path d="M4,0 L28,0 C30.209139,0 32,1.790861 32,4 L32,28 C32,30.209139 30.209139,32 28,32 L4,32 C1.790861,32 0,30.209139 0,28 L0,4 C0,1.790861 1.790861,0 4,0 Z" id="bg" fill="#373737"></path>
            <path d="M20.3477,6.761719 L21.1045,7.52344 C21.627,8.02637 21.9004,8.13379 22.6572,8.13379 L24.957,8.13379 C27.1836,8.13379 28.4092,9.34473 28.4092,11.55664 L28.4092,21.8447 C28.4092,24.0566 27.1836,25.2725 24.957,25.2725 L7.44727,25.2725 C5.2207,25.2725 4,24.0566 4,21.8447 L4,11.55664 C4,9.34473 5.2207,8.13379 7.44727,8.13379 L9.71289,8.13379 C10.46973,8.13379 10.74316,8.02148 11.26562,7.52344 L12.02734,6.761719 C12.56934,6.234375 13.10645,6 14.0781,6 L18.2969,6 C19.2686,6 19.8057,6.234375 20.3477,6.761719 Z M11.24121,14.05664 L9.65918,16.1904 C9.33691,16.6299 9.50781,17.167 10.05469,17.167 L10.89453,17.167 C11.38281,19.7207 13.53125,21.5127 16.2168,21.5127 C17.3789,21.5127 18.4238,21.166 19.1904,20.585 C19.7568,20.1846 19.8594,19.5986 19.5469,19.1738 C19.2295,18.7295 18.7021,18.5928 18.1504,18.9541 C17.5449,19.3887 16.9443,19.6084 16.2168,19.6084 C14.6006,19.6084 13.27246,18.5879 12.82812,17.167 L13.60938,17.167 C14.1562,17.167 14.3271,16.625 14,16.1904 L12.39844,14.05664 C12.0957,13.64648 11.55859,13.63672 11.24121,14.05664 Z M13.2334,11.70801 C12.66699,12.1084 12.56445,12.68945 12.87695,13.11426 C13.19922,13.55859 13.72168,13.69531 14.2734,13.33398 C14.874,12.89453 15.4795,12.68457 16.207,12.68457 C17.8232,12.68457 19.1465,13.70508 19.5957,15.12109 L18.7803,15.12109 C18.2334,15.12109 18.0625,15.66797 18.3896,16.0977 L19.9863,18.2363 C20.2988,18.6465 20.8359,18.6562 21.1484,18.2363 L22.7305,16.0977 C23.0527,15.6582 22.8818,15.12109 22.335,15.12109 L21.5293,15.12109 C21.041,12.56738 18.8926,10.77539 16.207,10.77539 C15.0449,10.77539 14,11.12207 13.2334,11.70801 Z" id="Shape" fill="#66D4CF"></path>
        </g>
    </g>
</svg>