<?xml version="1.0" encoding="UTF-8"?>
<!--Generator: Apple Native CoreSVG 232.5-->
<!DOCTYPE svg
PUBLIC "-//W3C//DTD SVG 1.1//EN"
       "http://www.w3.org/Graphics/SVG/1.1/DTD/svg11.dtd">
<svg version="1.1" xmlns="http://www.w3.org/2000/svg" xmlns:xlink="http://www.w3.org/1999/xlink" width="22.2034" height="22.6075">
 <g>
  <rect height="22.6075" opacity="0" width="22.2034" x="0" y="0"/>
  <path d="M5.9414 9.37581C5.93421 9.40987 5.9308 9.4472 5.9308 9.48733L5.9308 13.1446C5.9308 13.3985 6.06752 13.5401 6.33119 13.5401L9.25599 13.5401C9.54408 13.5401 9.74916 13.6035 9.97377 13.8086L13.4406 16.9678C13.4845 17.0117 13.5382 17.041 13.587 17.041C13.5977 17.041 13.6079 17.0398 13.6177 17.0373L15.9846 19.3997C15.7449 19.9184 15.2247 20.2588 14.5978 20.2588C14.0021 20.2588 13.5626 20.0196 12.9816 19.5069L8.89955 15.8545C8.84095 15.7959 8.78236 15.7813 8.71888 15.7813L5.99427 15.7813C4.37806 15.7813 3.52357 14.8975 3.52357 13.208L3.52357 9.42873C3.52357 8.61108 3.72257 7.98106 4.11204 7.54998ZM16.131 3.92092L16.131 13.5284L13.7238 11.1225L13.7238 5.73733C13.7238 5.64455 13.6652 5.59084 13.587 5.59084C13.5333 5.59084 13.4796 5.61037 13.4357 5.65432L10.7303 8.13073L9.14927 6.55054L12.9816 3.14455C13.5968 2.59768 14.0167 2.35842 14.588 2.35842C15.4669 2.35842 16.131 3.0469 16.131 3.92092Z" fill="#ff9f0a"/>
  <path d="M19.5001 21.0645C19.8224 21.3819 20.3449 21.3867 20.6622 21.0645C20.9699 20.7422 20.9796 20.2246 20.6622 19.9072L2.95228 2.20705C2.63002 1.88479 2.09779 1.88479 1.78041 2.20705C1.46791 2.51955 1.46791 3.05666 1.78041 3.36916Z" fill="#ff9f0a"/>
 </g>
</svg>
