<?xml version="1.0" encoding="UTF-8"?>
<!--Generator: Apple Native CoreSVG 232.5-->
<!DOCTYPE svg
PUBLIC "-//W3C//DTD SVG 1.1//EN"
       "http://www.w3.org/Graphics/SVG/1.1/DTD/svg11.dtd">
<svg version="1.1" xmlns="http://www.w3.org/2000/svg" xmlns:xlink="http://www.w3.org/1999/xlink" width="29.3506" height="23.5779">
 <g>
  <rect height="23.5779" opacity="0" width="29.3506" x="0" y="0"/>
  <path d="M4.89502 8.06171L4.89502 15.744C4.89502 17.1649 5.70068 17.9559 7.12158 17.9559L14.8045 17.9559L17.017 20.1651C16.9477 20.1716 16.8739 20.1727 16.7993 20.1727L6.72119 20.1727C4.02588 20.1727 2.52686 18.8446 2.52686 16.2665L2.52686 7.46765C2.52686 6.89667 2.60268 6.37941 2.75343 5.92342ZM20.9937 7.45789L20.9937 8.49412L24.2261 5.74402C24.7925 5.2655 25.3247 4.94324 25.8911 4.94324C26.8481 4.94324 27.522 5.61707 27.522 6.66687L27.522 17.0282C27.522 18.0731 26.8481 18.7469 25.8911 18.7469C25.3296 18.7469 24.7925 18.4247 24.2261 17.9462L20.9937 15.1918L20.9937 16.1005C20.9937 16.6573 20.924 17.163 20.7838 17.6104L18.6206 15.4483L18.6206 7.8241C18.6206 6.39343 17.8101 5.60242 16.3989 5.60242L8.76963 5.60242L6.567 3.40093C6.61611 3.39598 6.66843 3.39539 6.72119 3.39539L16.7993 3.39539C19.4897 3.39539 20.9937 4.87976 20.9937 7.45789ZM24.9634 7.77527L20.9937 10.9771L20.9937 12.7174L24.9634 15.9149C25.0366 15.9686 25.0903 16.0126 25.1685 16.0126C25.2612 16.0126 25.3149 15.9393 25.3149 15.827L25.3149 7.86804C25.3149 7.75086 25.2612 7.67761 25.1685 7.67761C25.0903 7.67761 25.0366 7.71668 24.9634 7.77527Z" fill="#ff9f0a"/>
  <path d="M20.6909 21.8378C21.0132 22.1552 21.5405 22.16 21.853 21.8378C22.1655 21.5204 22.1753 20.9979 21.853 20.6757L2.81982 1.65711C2.50244 1.33484 1.9751 1.33484 1.64795 1.65711C1.34033 1.96961 1.34033 2.5116 1.64795 2.81922Z" fill="#ff9f0a"/>
 </g>
</svg>
